<?xml version="1.0" standalone="no"?>
<!DOCTYPE svg PUBLIC "-//W3C//DTD SVG 20010904//EN"
 "http://www.w3.org/TR/2001/REC-SVG-20010904/DTD/svg10.dtd">
<svg version="1.0" xmlns="http://www.w3.org/2000/svg"
 width="700.000000pt" height="700.000000pt" viewBox="0 0 700.000000 700.000000"
 preserveAspectRatio="xMidYMid meet">
<metadata>
Created by potrace 1.14, written by Peter Selinger 2001-2017
</metadata>
<g transform="translate(0.000000,700.000000) scale(0.100000,-0.100000)"
fill="#000000" stroke="none">
<path d="M2997 6664 c-1 -1 -180 -5 -397 -8 -391 -5 -442 -9 -675 -46 -146
-24 -140 -23 -245 -50 -47 -12 -93 -23 -103 -25 -142 -31 -442 -146 -606 -232
-296 -156 -526 -356 -686 -594 -75 -111 -130 -225 -179 -371 -83 -250 -104
-391 -101 -678 4 -295 14 -350 110 -620 68 -189 232 -454 374 -604 237 -249
431 -380 756 -511 11 -5 22 -9 25 -10 3 0 34 -10 70 -22 76 -24 178 -50 235
-59 22 -3 76 -12 120 -20 44 -7 83 -14 88 -14 13 0 7 -37 -8 -50 -8 -7 -15
-17 -15 -22 0 -5 -5 -14 -10 -21 -6 -7 -44 -59 -85 -117 -40 -58 -107 -150
-148 -205 -73 -99 -634 -851 -649 -870 -4 -5 -18 -23 -31 -40 -45 -57 -683
-910 -759 -1015 -66 -91 -74 -106 -60 -115 10 -6 194 -11 465 -13 384 -3 450
-2 460 11 7 8 101 133 211 278 109 145 207 275 218 289 10 14 109 147 219 295
110 149 209 281 219 295 34 45 391 526 745 1005 176 238 436 591 478 648 83
114 170 247 165 252 -11 12 -95 15 -493 20 -384 4 -455 7 -595 20 -209 21
-473 109 -665 223 -141 84 -313 241 -394 361 -158 233 -223 506 -185 777 21
157 25 178 40 234 95 352 273 567 596 719 164 78 433 160 603 186 52 7 105 14
155 21 30 3 64 8 74 10 10 2 62 6 115 9 53 4 116 8 141 10 114 10 480 16 975
17 297 0 547 0 555 -1 14 -1 16 -289 15 -2828 0 -1556 1 -2834 3 -2840 3 -10
91 -13 393 -13 364 0 389 1 389 18 1 9 2 1293 3 2852 l2 2834 1038 0 1037 0 0
319 0 319 -2001 -4 c-1100 -1 -2001 -4 -2002 -4z"/>
</g>
</svg>
