<?xml version="1.0" encoding="UTF-8" standalone="no"?>
<svg
   xmlns:dc="http://purl.org/dc/elements/1.1/"
   xmlns:cc="http://creativecommons.org/ns#"
   xmlns:rdf="http://www.w3.org/1999/02/22-rdf-syntax-ns#"
   xmlns:svg="http://www.w3.org/2000/svg"
   xmlns="http://www.w3.org/2000/svg"
   xmlns:sodipodi="http://sodipodi.sourceforge.net/DTD/sodipodi-0.dtd"
   xmlns:inkscape="http://www.inkscape.org/namespaces/inkscape"
   version="1.0"
   width="50"
   height="50"
   viewBox="0 0 330.000000 299.000000"
   preserveAspectRatio="xMidYMid meet"
   id="svg14"
   sodipodi:docname="logo.svg"
   inkscape:version="1.0.1 (c497b03c, 2020-09-10)">
  <metadata
     id="metadata20">
    <rdf:RDF>
      <cc:Work
         rdf:about="">
        <dc:format>image/svg+xml</dc:format>
        <dc:type
           rdf:resource="http://purl.org/dc/dcmitype/StillImage" />
        <dc:title></dc:title>
      </cc:Work>
    </rdf:RDF>
  </metadata>
  <defs
     id="defs18" />
  <sodipodi:namedview
     pagecolor="#0EA5E9"
     bordercolor="#666666"
     borderopacity="1"
     objecttolerance="10"
     gridtolerance="10"
     guidetolerance="10"
     inkscape:pageopacity="0"
     inkscape:pageshadow="2"
     inkscape:window-width="1280"
     inkscape:window-height="755"
     id="namedview16"
     showgrid="false"
     inkscape:zoom="1.4272575"
     inkscape:cx="220"
     inkscape:cy="199.33333"
     inkscape:window-x="0"
     inkscape:window-y="23"
     inkscape:window-maximized="1"
     inkscape:current-layer="svg14" />
  <g
     transform="translate(0.000000,299.000000) scale(0.100000,-0.100000)"
     fill="#0EA5E9"
     stroke="none"
     id="g12"
     style="fill:#06b6d4">
    <path
       d="M1035 2979 c-502 -53 -859 -267 -974 -585 -50 -136 -64 -230 -59 -378 4 -117 9 -142 40 -233 113 -328 398 -562 743 -609 28 -3 55 -9 62 -13 8 -4 -141 -208 -417 -574 -237 -312 -430 -572 -430 -577 0 -6 84 -10 219 -10 l220 0 34 43 c35 42 883 1186 984 1326 29 40 53 77 53 82 0 5 -104 9 -237 9 -262 0 -328 7 -451 49 -111 39 -184 83 -265 162 -112 111 -167 263 -152 419 28 280 146 428 410 513 183 60 365 77 813 77 l322 0 0 -1340 0 -1340 185 0 185 0 0 1345 0 1345 490 0 490 0 0 150 0 150 -1092 -1 c-601 -1 -1129 -5 -1173 -10z"
       id="path10"
       style="fill:#0EA5E9" />
  </g>
</svg>
